<?xml version="1.0" encoding="utf-8"?>
<!-- Generator: Adobe Illustrator 19.2.1, SVG Export Plug-In . SVG Version: 6.00 Build 0)  -->
<svg version="1.1" id="Layer_1" xmlns="http://www.w3.org/2000/svg" xmlns:xlink="http://www.w3.org/1999/xlink" x="0px" y="0px"
	 viewBox="0 0 950.2 615.9" style="enable-background:new 0 0 950.2 615.9;" xml:space="preserve">
<style type="text/css">
	.st0{fill:#A2A1BF;}
	.st1{fill:#D5D3E1;}
	.st2{fill:#716C86;}
	.st3{fill:#6DCBD2;}
	.st4{fill:#C5E8EA;}
	.st5{fill:#398086;}
</style>
<polygon class="st0" points="-564.5,132.4 -478.2,162.3 -471,170.5 -557.4,149.3 "/>
<polygon class="st0" points="-553.5,73.9 -469.2,105.5 -461.4,114.2 -547.8,93 "/>
<polygon class="st0" points="-383.8,97.9 -321.6,125.5 -321.6,125.5 -384,108.6 "/>
<polygon class="st0" points="-733.5,46.4 -700.1,52.5 -621.5,27.1 -663.8,0 "/>
<g>
	
		<image style="overflow:visible;opacity:0.41;enable-background:new    ;" width="111" height="206" xlink:href="4AA6AB27897A7533.png"  transform="matrix(0.9942 0 0 0.9942 -711.2132 16.895)">
	</image>
	<g>
		<polygon class="st1" points="-674.1,201.7 -700.1,52.5 -621.5,27 -638.3,176.5 		"/>
	</g>
</g>
<polygon class="st2" points="-688.5,189.7 -733.5,46.4 -700.1,52.5 -674.1,201.7 "/>
<polygon class="st0" points="-567.3,20.3 -537.9,37.3 -455.4,39.8 -484.1,16.7 "/>
<g>
	
		<image style="overflow:visible;opacity:0.41;enable-background:new    ;" width="121" height="69" xlink:href="4AA6AB27897A753F.png"  transform="matrix(0.9902 0 0 0.9902 -555.9422 25.6366)">
	</image>
	<g>
		<polygon class="st1" points="-544.4,74.5 -537.9,37.3 -455.4,39.7 -455.4,39.7 		"/>
	</g>
</g>
<polygon class="st2" points="-577.4,175.8 -567.3,20.3 -537.9,37.3 -563.8,186.4 "/>
<g>
	
		<image style="overflow:visible;opacity:0.41;enable-background:new    ;" width="126" height="69" xlink:href="4AA6AB27897A7531.png"  transform="matrix(0.9906 0 0 0.9906 -574.9394 138.6249)">
	</image>
	<g>
		<polygon class="st1" points="-564.2,186.3 -557.7,149.1 -470.4,170.6 -471.9,184.7 		"/>
	</g>
</g>
<g>
	
		<image style="overflow:visible;opacity:0.41;enable-background:new    ;" width="126" height="69" xlink:href="4AA6AB27897A7532.png"  transform="matrix(0.9906 0 0 0.9906 -564.9394 82.6248)">
	</image>
	<g>
		<polygon class="st1" points="-554.2,130.3 -547.8,93 -460.5,114.5 -462,128.6 		"/>
	</g>
</g>
<polygon class="st0" points="-415.1,30.7 -383.3,42.5 -301.5,31.2 -333.6,4.8 "/>
<g>
	
		<image style="overflow:visible;opacity:0.41;enable-background:new    ;" width="114" height="109" xlink:href="4AA6AB27897A7530.png"  transform="matrix(0.991 0 0 0.991 -394.0234 20.7874)">
	</image>
	<g>
		<polygon class="st1" points="-383.5,108.6 -383.3,42.5 -301.5,31.2 -323.7,88.1 		"/>
	</g>
</g>
<polygon class="st2" points="-398.8,178.5 -415.1,30.7 -383.3,42.5 -383.8,193.9 "/>
<g>
	
		<image style="overflow:visible;opacity:0.41;enable-background:new    ;" width="103" height="118" xlink:href="4AA6AB27897A752C.png"  transform="matrix(0.991 0 0 0.991 -396.0705 96.8304)">
	</image>
	<g>
		<polygon class="st1" points="-384.2,193.8 -383.5,108.6 -321.6,125.5 -313.9,180.6 		"/>
	</g>
</g>
<polygon class="st3" points="317.7,307.5 405.1,334.3 412.5,342.2 325.5,324.2 "/>
<polygon class="st3" points="326.7,248.6 412,277.2 420.1,285.6 333,267.5 "/>
<polygon class="st3" points="498.7,268 558.4,300.7 558.4,300.7 497.6,278.6 "/>
<g>
	
		<image style="overflow:visible;opacity:0.32;" width="137" height="199" xlink:href="A3CC364E1A72BFFB.png"  transform="matrix(1 0 0 1 135 195.9)">
	</image>
	<g>
		<g>
			<g>
				<polygon class="st4" points="143.7,372.3 164.7,204.9 249,205.1 249,363.6 				"/>
			</g>
		</g>
	</g>
</g>
<polygon class="st3" points="311,195.5 341,211.5 423.5,211.1 394,189 "/>
<g>
	
		<image style="overflow:visible;opacity:0.41;enable-background:new    ;" width="120" height="69" xlink:href="4AA6AB27897A752E.png"  transform="matrix(0.9994 -3.538888e-02 3.538888e-02 0.9994 322.9905 200.2604)">
	</image>
	<g>
		<polygon class="st4" points="335.8,248.9 341,211.5 423.5,211 423.5,211 		"/>
	</g>
</g>
<polygon class="st5" points="306.4,351.3 311,195.5 341,211.5 320.4,361.4 "/>
<g>
	
		<image style="overflow:visible;opacity:0.41;enable-background:new    ;" width="125" height="68" xlink:href="4AA6AB27897A752F.png"  transform="matrix(0.9994 -3.538888e-02 3.538888e-02 0.9994 308.0013 313.862)">
	</image>
	<g>
		<polygon class="st4" points="320.1,361.3 325.1,324.1 413,342.5 412.1,356.6 		"/>
	</g>
</g>
<g>
	
		<image style="overflow:visible;opacity:0.41;enable-background:new    ;" width="124" height="68" xlink:href="CA16BCB6DEB2F12E.png"  transform="matrix(0.9994 -3.538888e-02 3.538888e-02 0.9994 316.0133 257.5432)">
	</image>
	<g>
		<polygon class="st4" points="328,305 333,267.5 421,285.9 420,300 		"/>
	</g>
</g>
<polygon class="st3" points="473.2,198.4 503.9,212.8 586.3,208.4 557.8,187.9 "/>
<g>
	
		<image style="overflow:visible;opacity:0.41;enable-background:new    ;" width="114" height="109" xlink:href="CA16BCB6DEB2F12A.png"  transform="matrix(0.9965 8.359589e-02 -8.359589e-02 0.9965 494.5844 189.8791)">
	</image>
	<g>
		<polygon class="st4" points="498.1,278.7 503.9,212.8 586.3,208.4 559.4,263.3 		"/>
	</g>
</g>
<polygon class="st5" points="477.1,347 473.2,198.4 503.9,212.8 490.7,363.6 "/>
<g>
	
		<image style="overflow:visible;opacity:0.41;enable-background:new    ;" width="101" height="116" xlink:href="CA16BCB6DEB2F12B.png"  transform="matrix(0.9965 8.359589e-02 -8.359589e-02 0.9965 487.151 266.526)">
	</image>
	<g>
		<polygon class="st4" points="490.4,363.6 498.1,278.7 558.4,300.8 561.5,356.2 		"/>
	</g>
</g>
<polygon class="st5" points="132.8,359.2 136.4,189.5 166.4,205.5 143.7,372.3 "/>
<polygon class="st3" points="136.5,189.6 166.5,205.5 249,205.1 219.5,183 "/>
</svg>
